<svg width="16" height="16" viewBox="0 0 16 16" fill="none" xmlns="http://www.w3.org/2000/svg">
<path fill-rule="evenodd" clip-rule="evenodd" d="M8.70727 2.62615C8.31675 2.23562 7.68358 2.23562 7.29306 2.62615C6.90253 3.01667 6.90253 3.64983 7.29306 4.04036L10.2526 6.99992H3.3335C2.78121 6.99992 2.3335 7.44763 2.3335 7.99992C2.3335 8.5522 2.78121 8.99992 3.3335 8.99992H10.2526L7.29306 11.9595C6.90253 12.35 6.90253 12.9832 7.29306 13.3737C7.68358 13.7642 8.31675 13.7642 8.70727 13.3737L13.3739 8.70703C13.4698 8.61115 13.5422 8.50065 13.591 8.3827C13.6398 8.2648 13.6668 8.13551 13.6668 7.99992C13.6668 7.86433 13.6398 7.73504 13.591 7.61714C13.5422 7.49919 13.4698 7.38869 13.3739 7.29281L8.70727 2.62615Z" fill="#2278D4"/>
</svg>
