<svg width="24" height="20" viewBox="0 0 24 20" fill="none" xmlns="http://www.w3.org/2000/svg">
<path d="M22.766 2.56588C22.4006 2.41367 21.9981 2.37366 21.6099 2.45094C21.2217 2.52823 20.8653 2.71932 20.586 2.99988L18 5.58588L13.414 0.99988C13.0389 0.624937 12.5303 0.414307 12 0.414307C11.4697 0.414307 10.9611 0.624937 10.586 0.99988L6 5.58588L3.414 2.99988C3.1343 2.72026 2.77797 2.52985 2.39006 2.45271C2.00216 2.37558 1.60009 2.41518 1.23469 2.56652C0.869291 2.71786 0.556965 2.97414 0.337197 3.30296C0.117428 3.63178 8.44486e-05 4.01838 0 4.41388L0 14.9999C0.00158786 16.3255 0.528882 17.5963 1.46622 18.5337C2.40356 19.471 3.67441 19.9983 5 19.9999H19C20.3256 19.9983 21.5964 19.471 22.5338 18.5337C23.4711 17.5963 23.9984 16.3255 24 14.9999V4.41388C24.0001 4.01835 23.8829 3.63167 23.6633 3.30273C23.4436 2.97379 23.1314 2.71737 22.766 2.56588Z" fill="#191F30"/>
</svg>
