<svg width="24" height="24" viewBox="0 0 24 24" fill="none" xmlns="http://www.w3.org/2000/svg">
<path d="M1.3267 12.4L4.8867 15L3.53471 19.187C3.31622 19.8363 3.31345 20.539 3.52681 21.19C3.74018 21.8411 4.15825 22.4058 4.7187 22.8C5.26956 23.2067 5.9371 23.4247 6.62186 23.4212C7.30662 23.4178 7.97195 23.1932 8.51871 22.781L11.9997 20.219L15.4817 22.778C16.0316 23.1824 16.6955 23.4021 17.3781 23.4054C18.0607 23.4087 18.7267 23.1955 19.2805 22.7965C19.8342 22.3974 20.2472 21.833 20.46 21.1844C20.6728 20.5359 20.6744 19.8365 20.4647 19.187L19.1127 15L22.6727 12.4C23.2218 11.9985 23.6301 11.4337 23.8391 10.7863C24.048 10.139 24.0471 9.44214 23.8364 8.79534C23.6257 8.14854 23.2159 7.58488 22.6657 7.18486C22.1155 6.78484 21.453 6.56892 20.7727 6.56796H16.3997L15.0727 2.43195C14.864 1.78091 14.454 1.21297 13.9017 0.81002C13.3494 0.407071 12.6834 0.189941 11.9997 0.189941C11.316 0.189941 10.65 0.407071 10.0977 0.81002C9.54544 1.21297 9.13538 1.78091 8.92671 2.43195L7.59971 6.56796H3.23071C2.55045 6.56892 1.8879 6.78484 1.33768 7.18486C0.787473 7.58488 0.377745 8.14854 0.167026 8.79534C-0.0436933 9.44214 -0.044626 10.139 0.164361 10.7863C0.373348 11.4337 0.781566 11.9985 1.3307 12.4H1.3267Z" fill="#191F30"/>
</svg>
